#!OML:ASF E:\motion texture\Top Level 1\Subject 1\Session 1\male.ASF
:FULLY-SPECIFIED
:DEGREES
142
root 36.6996 17.54 5.95884 43.0526 -86.3591 -32.7223
lowerback -0.440483 0.728081 1.19966
upperback 0.396186 0.966224 -1.42833
thorax 0.69711 0.490892 -2.12556
lowerneck -19.9916 -2.08845 -5.8103
upperneck 8.99465 -2.51001 8.46938
head 6.15801 -0.738818 3.40312
rclavicle -1.12313e-014 -1.59028e-015
rhumerus -22.5063 -9.60808 -88.5545
rradius 28.7766
rwrist 17.3038
rhand -15.3354 -26.5119
rfingers 7.12502
rthumb 10.8413 -56.2121
lclavicle -1.12313e-014 -1.59028e-015
lhumerus -27.0577 21.2329 79.4094
lradius 26.2944
lwrist -31.27
lhand -14.966 23.1964
lfingers 7.12502
lthumb 11.1975 52.8776
rfemur -25.1354 -5.21532 19.6494
rtibia 58.1172
rfoot 1.57041 -16.4472
rtoes 4.91519
lfemur -22.5883 -6.4852 -16.684
ltibia 21.2051
lfoot -8.22007 6.08613
ltoes -0.255875
143
root 36.5585 17.5453 5.97523 41.0102 -86.4214 -30.7487
lowerback -0.403352 0.702695 1.07747
upperback 0.423899 0.933263 -1.44254
thorax 0.701405 0.473902 -2.07216
lowerneck -19.9419 -2.0789 -5.80428
upperneck 8.82345 -2.49673 8.4995
head 6.09482 -0.733299 3.41161
rclavicle -2.38542e-015 -1.03368e-014
rhumerus -22.4452 -8.92498 -88.7826
rradius 29.3224
rwrist 16.8787
rhand -15.3968 -26.508
rfingers 7.12502
rthumb 10.7821 -56.2113
lclavicle -2.38542e-015 -1.03368e-014
lhumerus -26.5842 20.2992 79.9625
lradius 26.7735
lwrist -30.7075
lhand -15.0594 23.3513
lfingers 7.12502
lthumb 11.1075 53.0373
rfemur -26.1041 -5.32125 19.4088
rtibia 58.1216
rfoot 1.24214 -16.7464
rtoes 5.32986
lfemur -21.8772 -6.60722 -16.9912
ltibia 21.0686
lfoot -8.59526 6.14698
ltoes -0.207731
144
root 36.4174 17.5496 5.99085 38.9888 -86.475 -28.7901
lowerback -0.367499 0.67772 0.960492
upperback 0.451476 0.900741 -1.45404
thorax 0.706452 0.457133 -2.01888
lowerneck -19.8967 -2.06917 -5.79801
upperneck 8.64644 -2.48266 8.52901
head 6.03049 -0.727511 3.4199
rclavicle -5.56597e-015 1.19271e-014
rhumerus -22.3745 -8.22343 -89.0127
rradius 29.8852
rwrist 16.456
rhand -15.4625 -26.5062
rfingers 7.12502
rthumb 10.7187 -56.2127
lclavicle -5.56597e-015 1.19271e-014
lhumerus -26.1023 19.3455 80.516
lradius 27.2692
lwrist -30.1355
lhand -15.1614 23.5126
lfingers 7.12502
lthumb 11.0091 53.2039
rfemur -27.0455 -5.41094 19.1743
rtibia 57.9805
rfoot 0.854598 -17.0245
rtoes 5.75587
lfemur -21.1687 -6.72216 -17.2872
ltibia 20.9247
lfoot -8.97572 6.21504
ltoes -0.176299
145
root 36.2763 17.553 6.00567 36.9822 -86.5179 -26.8398
lowerback -0.332197 0.652367 0.849033
upperback 0.477454 0.86761 -1.46302
thorax 0.710306 0.440042 -1.9661
lowerneck -19.8538 -2.05948 -5.79102
upperneck 8.46432 -2.46816 8.55651
head 5.96493 -0.721744 3.42742
rclavicle -6.4605e-015 -8.74653e-015
rhumerus -22.2992 -7.49913 -89.2446
rradius 30.4706
rwrist 16.032
rhand -15.536 -26.5015
rfingers 7.12502
rthumb 10.6478 -56.2117
lclavicle -6.4605e-015 -8.74653e-015
lhumerus -25.6138 18.3736 81.0674
lradius 27.78
lwrist -29.5544
lhand -15.2663 23.6876
lfingers 7.12502
lthumb 10.9079 53.3843
rfemur -27.9576 -5.48619 18.9449
rtibia 57.6937
rfoot 0.415797 -17.2743
rtoes 6.18788
lfemur -20.4644 -6.831 -17.5716
ltibia 20.7749
lfoot -9.36169 6.287
ltoes -0.160765
146
root 36.135 17.5553 6.01966 35.0114 -86.5508 -24.919
lowerback -0.299139 0.626897 0.742005
upperback 0.503246 0.834236 -1.46924
thorax 0.715355 0.422837 -1.91294
lowerneck -19.8143 -2.05115 -5.78531
upperneck 8.27482 -2.45463 8.58401
head 5.89772 -0.716618 3.435
rclavicle -9.14409e-015 3.33958e-014
rhumerus -22.2162 -6.75327 -89.4777
rradius 31.0772
rwrist 15.6101
rhand -15.6194 -26.4943
rfingers 7.12502
rthumb 10.5673 -56.2087
lclavicle -9.14409e-015 3.33958e-014
lhumerus -25.1171 17.3846 81.6162
lradius 28.3054
lwrist -28.9648
lhand -15.3719 23.871
lfingers 7.12502
lthumb 10.806 53.573
rfemur -28.8374 -5.54618 18.7195
rtibia 57.263
rfoot -0.0754361 -17.4917
rtoes 6.59715
lfemur -19.7637 -6.93323 -17.8438
ltibia 20.6186
lfoot -9.75086 6.36148
ltoes -0.168575
147
root 35.9935 17.5566 6.03276 33.0841 -86.5717 -23.0345
lowerback -0.268883 0.601036 0.639769
upperback 0.52828 0.800265 -1.47308
thorax 0.721325 0.405339 -1.85999
lowerneck -19.7762 -2.04232 -5.77731
upperneck 8.07768 -2.44031 8.60959
head 5.82827 -0.711353 3.44159
rclavicle -2.98177e-016 -3.97569e-015
rhumerus -22.1257 -5.98541 -89.712
rradius 31.7038
rwrist 15.1908
rhand -15.7131 -26.4844
rfingers 7.12502
rthumb 10.4769 -56.2033
lclavicle -2.98177e-016 -3.97569e-015
lhumerus -24.6123 16.3775 82.1614
lradius 28.8452
lwrist -28.3667
lhand -15.4796 24.0644
lfingers 7.12502
lthumb 10.7021 53.7719
rfemur -29.6839 -5.59365 18.4982
rtibia 56.6905
rfoot -0.593227 -17.6737
rtoes 6.98507
lfemur -19.0683 -7.02807 -18.1026
ltibia 20.4573
lfoot -10.1439 6.43286
ltoes -0.195292
148
root 35.8516 17.5569 6.04502 31.2247 -86.5829 -21.2124
lowerback -0.239635 0.574968 0.542808
upperback 0.552904 0.76595 -1.47511
thorax 0.727587 0.387678 -1.80813
lowerneck -19.7409 -2.03328 -5.76844
upperneck 7.87567 -2.4256 8.63535
head 5.7578 -0.705972 3.44812
rclavicle 1.98785e-016 -3.97569e-015
rhumerus -22.0265 -5.19616 -89.9471
rradius 32.3492
rwrist 14.7808
rhand -15.8147 -26.4728
rfingers 7.12502
rthumb 10.3789 -56.1967
lclavicle 1.98785e-016 -3.97569e-015
lhumerus -24.099 15.3547 82.7008
lradius 29.3988
lwrist -27.7625
lhand -15.5831 24.2703
lfingers 7.12502
lthumb 10.6023 53.9828
rfemur -30.4942 -5.62798 18.2788
rtibia 55.9793
rfoot -1.1205 -17.8156
rtoes 7.33627
lfemur -18.3758 -7.11657 -18.3484
ltibia 20.2914
lfoot -10.5415 6.50186
ltoes -0.237137
149
root 35.7093 17.556 6.05638 29.4293 -86.5836 -19.448
lowerback -0.213322 0.548578 0.449261
upperback 0.575993 0.731154 -1.47528
thorax 0.734036 0.369768 -1.75624
lowerneck -19.7028 -2.023 -5.7564
upperneck 7.66658 -2.40959 8.65932
head 5.68455 -0.700253 3.45362
rclavicle -1.59028e-014 -8.34896e-015
rhumerus -21.9185 -4.38546 -90.1822
rradius 33.0117
rwrist 14.3806
rhand -15.9274 -26.4631
rfingers 7.12502
rthumb 10.2702 -56.1924
lclavicle -1.59028e-014 -8.34896e-015
lhumerus -23.5795 14.3157 83.2338
lradius 29.9665
lwrist -27.1515
lhand -15.683 24.4854
lfingers 7.12502
lthumb 10.506 54.2028
rfemur -31.2682 -5.6507 18.0601
rtibia 55.1355
rfoot -1.64818 -17.9149
rtoes 7.60951
lfemur -17.6884 -7.1989 -18.5813
ltibia 20.1227
lfoot -10.9419 6.56765
ltoes -0.300431
150
root 35.5665 17.5541 6.06681 27.708 -86.5723 -17.7524
lowerback -0.18896 0.521452 0.359318
upperback 0.598417 0.695334 -1.47355
thorax 0.740996 0.35135 -1.70441
lowerneck -19.6645 -2.01229 -5.74069
upperneck 7.45123 -2.39327 8.68068
head 5.60928 -0.69468 3.45767
rclavicle -3.77691e-015 -1.39149e-014
rhumerus -21.8009 -3.55399 -90.4164
rradius 33.6913
rwrist 13.9985
rhand -16.0543 -26.4508
rfingers 7.12502
rthumb 10.1478 -56.1861
lclavicle -3.77691e-015 -1.39149e-014
lhumerus -23.0515 13.26 83.7601
lradius 30.5474
lwrist -26.5343
lhand -15.7792 24.713
lfingers 7.12502
lthumb 10.4131 54.4351
rfemur -32.0023 -5.66356 17.8413
rtibia 54.1635
rfoot -2.1671 -17.9664
rtoes 7.79796
lfemur -17.0049 -7.2764 -18.8007
ltibia 19.952
lfoot -11.3454 6.62927
ltoes -0.384982
151
root 35.4231 17.5511 6.07614 26.0961 -86.5506 -16.161
lowerback -0.165362 0.494257 0.272078
upperback 0.619475 0.659381 -1.47007
thorax 0.747105 0.332854 -1.65231
lowerneck -19.6236 -2.00137 -5.72587
upperneck 7.2275 -2.37667 8.7058
head 5.53113 -0.689011 3.46305
rclavicle 8.15017e-015 1.07344e-014
rhumerus -21.6694 -2.69965 -90.6504
rradius 34.3843
rwrist 13.627
rhand -16.1909 -26.4402
rfingers 7.12502
rthumb 10.016 -56.1819
lclavicle 8.15017e-015 1.07344e-014
lhumerus -22.5154 12.1885 84.2773
lradius 31.1412
lwrist -25.9124
lhand -15.8723 24.9363
lfingers 7.12502
lthumb 10.3233 54.6629
rfemur -32.6981 -5.66479 17.6235
rtibia 53.0747
rfoot -2.67111 -17.9701
rtoes 7.90124
lfemur -16.3271 -7.34787 -19.0039
ltibia 19.7821
lfoot -11.7513 6.68721
ltoes -0.490679
152
root 35.2791 17.5469 6.0847 24.5581 -86.516 -14.6362
lowerback -0.144879 0.465811 0.189453
upperback 0.639427 0.62173 -1.46573
thorax 0.753933 0.313523 -1.6019
lowerneck -19.5874 -1.99159 -5.71149
upperneck 7.00161 -2.36115 8.73051
head 5.45324 -0.683973 3.46827
rclavicle 1.09332e-015 0
rhumerus -21.5233 -1.82418 -90.8819
rradius 35.093
rwrist 13.2741
rhand -16.3374 -26.4264
rfingers 7.12502
rthumb 9.87465 -56.1748
lclavicle 1.09332e-015 0
lhumerus -21.9682 11.1013 84.7862
lradius 31.7472
lwrist -25.2842
lhand -15.9589 25.1676
lfingers 7.12502
lthumb 10.2398 54.8983
rfemur -33.3572 -5.661 17.4031
rtibia 51.8795
rfoot -3.14032 -17.9145
rtoes 7.92786
lfemur -15.6587 -7.41808 -19.1954
ltibia 19.616
lfoot -12.1589 6.74065
ltoes -0.622914
